<?xml version="1.0" encoding="UTF-8" standalone="no"?>
<!DOCTYPE svg PUBLIC "-//W3C//DTD SVG 1.1//EN"
 "http://www.w3.org/Graphics/SVG/1.1/DTD/svg11.dtd">
<!-- Generated by graphviz version 2.38.0 (20140413.2041)
 -->
<!-- Title: plot Pages: 1 -->
<svg width="214pt" height="1919pt"
 viewBox="0.00 0.00 214.00 1919.00" xmlns="http://www.w3.org/2000/svg" xmlns:xlink="http://www.w3.org/1999/xlink">
<g id="graph0" class="graph" transform="scale(1 1) rotate(0) translate(4 1915)">
<title>plot</title>
<polygon fill="white" stroke="none" points="-4,4 -4,-1915 210,-1915 210,4 -4,4"/>
<!-- data -->
<g id="node1" class="node"><title>data</title>
<ellipse fill="#8dd3c7" stroke="black" cx="47" cy="-29" rx="47" ry="29"/>
<text text-anchor="middle" x="47" y="-25.3" font-family="Times,serif" font-size="14.00">data</text>
</g>
<!-- conv1 -->
<g id="node2" class="node"><title>conv1</title>
<polygon fill="#fb8072" stroke="black" points="94,-167 -7.10543e-15,-167 -7.10543e-15,-109 94,-109 94,-167"/>
<text text-anchor="middle" x="47" y="-141.8" font-family="Times,serif" font-size="14.00">Convolution</text>
<text text-anchor="middle" x="47" y="-126.8" font-family="Times,serif" font-size="14.00">3x3/1, 16</text>
</g>
<!-- conv1&#45;&gt;data -->
<g id="edge1" class="edge"><title>conv1&#45;&gt;data</title>
<path fill="none" stroke="black" d="M47,-98.5824C47,-85.2841 47,-70.632 47,-58.2967"/>
<polygon fill="black" stroke="black" points="47,-108.887 42.5001,-98.887 47,-103.887 47.0001,-98.887 47.0001,-98.887 47.0001,-98.887 47,-103.887 51.5001,-98.8871 47,-108.887 47,-108.887"/>
<text text-anchor="middle" x="71" y="-79.8" font-family="Times,serif" font-size="14.00">3x64x64</text>
</g>
<!-- relu1 -->
<g id="node3" class="node"><title>relu1</title>
<polygon fill="#ffffb3" stroke="black" points="94,-276 -7.10543e-15,-276 -7.10543e-15,-218 94,-218 94,-276"/>
<text text-anchor="middle" x="47" y="-250.8" font-family="Times,serif" font-size="14.00">Activation</text>
<text text-anchor="middle" x="47" y="-235.8" font-family="Times,serif" font-size="14.00">relu</text>
</g>
<!-- relu1&#45;&gt;conv1 -->
<g id="edge2" class="edge"><title>relu1&#45;&gt;conv1</title>
<path fill="none" stroke="black" d="M47,-207.582C47,-194.284 47,-179.632 47,-167.297"/>
<polygon fill="black" stroke="black" points="47,-217.887 42.5001,-207.887 47,-212.887 47.0001,-207.887 47.0001,-207.887 47.0001,-207.887 47,-212.887 51.5001,-207.887 47,-217.887 47,-217.887"/>
<text text-anchor="middle" x="74.5" y="-188.8" font-family="Times,serif" font-size="14.00">16x64x64</text>
</g>
<!-- pool1 -->
<g id="node4" class="node"><title>pool1</title>
<polygon fill="#80b1d3" stroke="black" points="94,-385 -7.10543e-15,-385 -7.10543e-15,-327 94,-327 94,-385"/>
<text text-anchor="middle" x="47" y="-359.8" font-family="Times,serif" font-size="14.00">Pooling</text>
<text text-anchor="middle" x="47" y="-344.8" font-family="Times,serif" font-size="14.00">max, 2x2/2</text>
</g>
<!-- pool1&#45;&gt;relu1 -->
<g id="edge3" class="edge"><title>pool1&#45;&gt;relu1</title>
<path fill="none" stroke="black" d="M47,-316.582C47,-303.284 47,-288.632 47,-276.297"/>
<polygon fill="black" stroke="black" points="47,-326.887 42.5001,-316.887 47,-321.887 47.0001,-316.887 47.0001,-316.887 47.0001,-316.887 47,-321.887 51.5001,-316.887 47,-326.887 47,-326.887"/>
<text text-anchor="middle" x="74.5" y="-297.8" font-family="Times,serif" font-size="14.00">16x64x64</text>
</g>
<!-- dp2 -->
<g id="node5" class="node"><title>dp2</title>
<polygon fill="#fccde5" stroke="black" points="94,-494 -7.10543e-15,-494 -7.10543e-15,-436 94,-436 94,-494"/>
<text text-anchor="middle" x="47" y="-461.3" font-family="Times,serif" font-size="14.00">Dropout</text>
</g>
<!-- dp2&#45;&gt;pool1 -->
<g id="edge4" class="edge"><title>dp2&#45;&gt;pool1</title>
<path fill="none" stroke="black" d="M47,-425.582C47,-412.284 47,-397.632 47,-385.297"/>
<polygon fill="black" stroke="black" points="47,-435.887 42.5001,-425.887 47,-430.887 47.0001,-425.887 47.0001,-425.887 47.0001,-425.887 47,-430.887 51.5001,-425.887 47,-435.887 47,-435.887"/>
<text text-anchor="middle" x="74.5" y="-406.8" font-family="Times,serif" font-size="14.00">16x32x32</text>
</g>
<!-- conv2 -->
<g id="node6" class="node"><title>conv2</title>
<polygon fill="#fb8072" stroke="black" points="94,-603 -7.10543e-15,-603 -7.10543e-15,-545 94,-545 94,-603"/>
<text text-anchor="middle" x="47" y="-577.8" font-family="Times,serif" font-size="14.00">Convolution</text>
<text text-anchor="middle" x="47" y="-562.8" font-family="Times,serif" font-size="14.00">3x3/1, 32</text>
</g>
<!-- conv2&#45;&gt;dp2 -->
<g id="edge5" class="edge"><title>conv2&#45;&gt;dp2</title>
<path fill="none" stroke="black" d="M47,-534.582C47,-521.284 47,-506.632 47,-494.297"/>
<polygon fill="black" stroke="black" points="47,-544.887 42.5001,-534.887 47,-539.887 47.0001,-534.887 47.0001,-534.887 47.0001,-534.887 47,-539.887 51.5001,-534.887 47,-544.887 47,-544.887"/>
<text text-anchor="middle" x="74.5" y="-515.8" font-family="Times,serif" font-size="14.00">16x32x32</text>
</g>
<!-- relu2 -->
<g id="node7" class="node"><title>relu2</title>
<polygon fill="#ffffb3" stroke="black" points="94,-712 -7.10543e-15,-712 -7.10543e-15,-654 94,-654 94,-712"/>
<text text-anchor="middle" x="47" y="-686.8" font-family="Times,serif" font-size="14.00">Activation</text>
<text text-anchor="middle" x="47" y="-671.8" font-family="Times,serif" font-size="14.00">relu</text>
</g>
<!-- relu2&#45;&gt;conv2 -->
<g id="edge6" class="edge"><title>relu2&#45;&gt;conv2</title>
<path fill="none" stroke="black" d="M47,-643.582C47,-630.284 47,-615.632 47,-603.297"/>
<polygon fill="black" stroke="black" points="47,-653.887 42.5001,-643.887 47,-648.887 47.0001,-643.887 47.0001,-643.887 47.0001,-643.887 47,-648.887 51.5001,-643.887 47,-653.887 47,-653.887"/>
<text text-anchor="middle" x="74.5" y="-624.8" font-family="Times,serif" font-size="14.00">32x32x32</text>
</g>
<!-- pool2 -->
<g id="node8" class="node"><title>pool2</title>
<polygon fill="#80b1d3" stroke="black" points="94,-821 -7.10543e-15,-821 -7.10543e-15,-763 94,-763 94,-821"/>
<text text-anchor="middle" x="47" y="-795.8" font-family="Times,serif" font-size="14.00">Pooling</text>
<text text-anchor="middle" x="47" y="-780.8" font-family="Times,serif" font-size="14.00">max, 2x2/2</text>
</g>
<!-- pool2&#45;&gt;relu2 -->
<g id="edge7" class="edge"><title>pool2&#45;&gt;relu2</title>
<path fill="none" stroke="black" d="M47,-752.582C47,-739.284 47,-724.632 47,-712.297"/>
<polygon fill="black" stroke="black" points="47,-762.887 42.5001,-752.887 47,-757.887 47.0001,-752.887 47.0001,-752.887 47.0001,-752.887 47,-757.887 51.5001,-752.887 47,-762.887 47,-762.887"/>
<text text-anchor="middle" x="74.5" y="-733.8" font-family="Times,serif" font-size="14.00">32x32x32</text>
</g>
<!-- dp3 -->
<g id="node9" class="node"><title>dp3</title>
<polygon fill="#fccde5" stroke="black" points="94,-930 -7.10543e-15,-930 -7.10543e-15,-872 94,-872 94,-930"/>
<text text-anchor="middle" x="47" y="-897.3" font-family="Times,serif" font-size="14.00">Dropout</text>
</g>
<!-- dp3&#45;&gt;pool2 -->
<g id="edge8" class="edge"><title>dp3&#45;&gt;pool2</title>
<path fill="none" stroke="black" d="M47,-861.582C47,-848.284 47,-833.632 47,-821.297"/>
<polygon fill="black" stroke="black" points="47,-871.887 42.5001,-861.887 47,-866.887 47.0001,-861.887 47.0001,-861.887 47.0001,-861.887 47,-866.887 51.5001,-861.887 47,-871.887 47,-871.887"/>
<text text-anchor="middle" x="74.5" y="-842.8" font-family="Times,serif" font-size="14.00">32x16x16</text>
</g>
<!-- conv3 -->
<g id="node10" class="node"><title>conv3</title>
<polygon fill="#fb8072" stroke="black" points="94,-1039 -7.10543e-15,-1039 -7.10543e-15,-981 94,-981 94,-1039"/>
<text text-anchor="middle" x="47" y="-1013.8" font-family="Times,serif" font-size="14.00">Convolution</text>
<text text-anchor="middle" x="47" y="-998.8" font-family="Times,serif" font-size="14.00">3x3/1, 64</text>
</g>
<!-- conv3&#45;&gt;dp3 -->
<g id="edge9" class="edge"><title>conv3&#45;&gt;dp3</title>
<path fill="none" stroke="black" d="M47,-970.582C47,-957.284 47,-942.632 47,-930.297"/>
<polygon fill="black" stroke="black" points="47,-980.887 42.5001,-970.887 47,-975.887 47.0001,-970.887 47.0001,-970.887 47.0001,-970.887 47,-975.887 51.5001,-970.887 47,-980.887 47,-980.887"/>
<text text-anchor="middle" x="74.5" y="-951.8" font-family="Times,serif" font-size="14.00">32x16x16</text>
</g>
<!-- relu3 -->
<g id="node11" class="node"><title>relu3</title>
<polygon fill="#ffffb3" stroke="black" points="94,-1148 -7.10543e-15,-1148 -7.10543e-15,-1090 94,-1090 94,-1148"/>
<text text-anchor="middle" x="47" y="-1122.8" font-family="Times,serif" font-size="14.00">Activation</text>
<text text-anchor="middle" x="47" y="-1107.8" font-family="Times,serif" font-size="14.00">relu</text>
</g>
<!-- relu3&#45;&gt;conv3 -->
<g id="edge10" class="edge"><title>relu3&#45;&gt;conv3</title>
<path fill="none" stroke="black" d="M47,-1079.58C47,-1066.28 47,-1051.63 47,-1039.3"/>
<polygon fill="black" stroke="black" points="47,-1089.89 42.5001,-1079.89 47,-1084.89 47.0001,-1079.89 47.0001,-1079.89 47.0001,-1079.89 47,-1084.89 51.5001,-1079.89 47,-1089.89 47,-1089.89"/>
<text text-anchor="middle" x="74.5" y="-1060.8" font-family="Times,serif" font-size="14.00">64x16x16</text>
</g>
<!-- pool3 -->
<g id="node12" class="node"><title>pool3</title>
<polygon fill="#80b1d3" stroke="black" points="94,-1257 -7.10543e-15,-1257 -7.10543e-15,-1199 94,-1199 94,-1257"/>
<text text-anchor="middle" x="47" y="-1231.8" font-family="Times,serif" font-size="14.00">Pooling</text>
<text text-anchor="middle" x="47" y="-1216.8" font-family="Times,serif" font-size="14.00">max, 2x2/2</text>
</g>
<!-- pool3&#45;&gt;relu3 -->
<g id="edge11" class="edge"><title>pool3&#45;&gt;relu3</title>
<path fill="none" stroke="black" d="M47,-1188.58C47,-1175.28 47,-1160.63 47,-1148.3"/>
<polygon fill="black" stroke="black" points="47,-1198.89 42.5001,-1188.89 47,-1193.89 47.0001,-1188.89 47.0001,-1188.89 47.0001,-1188.89 47,-1193.89 51.5001,-1188.89 47,-1198.89 47,-1198.89"/>
<text text-anchor="middle" x="74.5" y="-1169.8" font-family="Times,serif" font-size="14.00">64x16x16</text>
</g>
<!-- flt4 -->
<g id="node13" class="node"><title>flt4</title>
<polygon fill="#fdb462" stroke="black" points="94,-1366 -7.10543e-15,-1366 -7.10543e-15,-1308 94,-1308 94,-1366"/>
<text text-anchor="middle" x="47" y="-1333.3" font-family="Times,serif" font-size="14.00">Flatten</text>
</g>
<!-- flt4&#45;&gt;pool3 -->
<g id="edge12" class="edge"><title>flt4&#45;&gt;pool3</title>
<path fill="none" stroke="black" d="M47,-1297.58C47,-1284.28 47,-1269.63 47,-1257.3"/>
<polygon fill="black" stroke="black" points="47,-1307.89 42.5001,-1297.89 47,-1302.89 47.0001,-1297.89 47.0001,-1297.89 47.0001,-1297.89 47,-1302.89 51.5001,-1297.89 47,-1307.89 47,-1307.89"/>
<text text-anchor="middle" x="67.5" y="-1278.8" font-family="Times,serif" font-size="14.00">64x8x8</text>
</g>
<!-- dp4 -->
<g id="node14" class="node"><title>dp4</title>
<polygon fill="#fccde5" stroke="black" points="94,-1475 -7.10543e-15,-1475 -7.10543e-15,-1417 94,-1417 94,-1475"/>
<text text-anchor="middle" x="47" y="-1442.3" font-family="Times,serif" font-size="14.00">Dropout</text>
</g>
<!-- dp4&#45;&gt;flt4 -->
<g id="edge13" class="edge"><title>dp4&#45;&gt;flt4</title>
<path fill="none" stroke="black" d="M47,-1406.58C47,-1393.28 47,-1378.63 47,-1366.3"/>
<polygon fill="black" stroke="black" points="47,-1416.89 42.5001,-1406.89 47,-1411.89 47.0001,-1406.89 47.0001,-1406.89 47.0001,-1406.89 47,-1411.89 51.5001,-1406.89 47,-1416.89 47,-1416.89"/>
<text text-anchor="middle" x="61" y="-1387.8" font-family="Times,serif" font-size="14.00">4096</text>
</g>
<!-- fc4 -->
<g id="node15" class="node"><title>fc4</title>
<polygon fill="#fb8072" stroke="black" points="94,-1584 -7.10543e-15,-1584 -7.10543e-15,-1526 94,-1526 94,-1584"/>
<text text-anchor="middle" x="47" y="-1558.8" font-family="Times,serif" font-size="14.00">FullyConnected</text>
<text text-anchor="middle" x="47" y="-1543.8" font-family="Times,serif" font-size="14.00">256</text>
</g>
<!-- fc4&#45;&gt;dp4 -->
<g id="edge14" class="edge"><title>fc4&#45;&gt;dp4</title>
<path fill="none" stroke="black" d="M47,-1515.58C47,-1502.28 47,-1487.63 47,-1475.3"/>
<polygon fill="black" stroke="black" points="47,-1525.89 42.5001,-1515.89 47,-1520.89 47.0001,-1515.89 47.0001,-1515.89 47.0001,-1515.89 47,-1520.89 51.5001,-1515.89 47,-1525.89 47,-1525.89"/>
<text text-anchor="middle" x="61" y="-1496.8" font-family="Times,serif" font-size="14.00">4096</text>
</g>
<!-- dp5 -->
<g id="node16" class="node"><title>dp5</title>
<polygon fill="#fccde5" stroke="black" points="94,-1693 -7.10543e-15,-1693 -7.10543e-15,-1635 94,-1635 94,-1693"/>
<text text-anchor="middle" x="47" y="-1660.3" font-family="Times,serif" font-size="14.00">Dropout</text>
</g>
<!-- dp5&#45;&gt;fc4 -->
<g id="edge15" class="edge"><title>dp5&#45;&gt;fc4</title>
<path fill="none" stroke="black" d="M47,-1624.58C47,-1611.28 47,-1596.63 47,-1584.3"/>
<polygon fill="black" stroke="black" points="47,-1634.89 42.5001,-1624.89 47,-1629.89 47.0001,-1624.89 47.0001,-1624.89 47.0001,-1624.89 47,-1629.89 51.5001,-1624.89 47,-1634.89 47,-1634.89"/>
<text text-anchor="middle" x="57.5" y="-1605.8" font-family="Times,serif" font-size="14.00">256</text>
</g>
<!-- fc5 -->
<g id="node17" class="node"><title>fc5</title>
<polygon fill="#fb8072" stroke="black" points="94,-1802 -7.10543e-15,-1802 -7.10543e-15,-1744 94,-1744 94,-1802"/>
<text text-anchor="middle" x="47" y="-1776.8" font-family="Times,serif" font-size="14.00">FullyConnected</text>
<text text-anchor="middle" x="47" y="-1761.8" font-family="Times,serif" font-size="14.00">2</text>
</g>
<!-- fc5&#45;&gt;dp5 -->
<g id="edge16" class="edge"><title>fc5&#45;&gt;dp5</title>
<path fill="none" stroke="black" d="M47,-1733.58C47,-1720.28 47,-1705.63 47,-1693.3"/>
<polygon fill="black" stroke="black" points="47,-1743.89 42.5001,-1733.89 47,-1738.89 47.0001,-1733.89 47.0001,-1733.89 47.0001,-1733.89 47,-1738.89 51.5001,-1733.89 47,-1743.89 47,-1743.89"/>
<text text-anchor="middle" x="57.5" y="-1714.8" font-family="Times,serif" font-size="14.00">256</text>
</g>
<!-- softmax_label -->
<g id="node18" class="node"><title>softmax_label</title>
<ellipse fill="#8dd3c7" stroke="black" cx="159" cy="-1773" rx="47" ry="29"/>
<text text-anchor="middle" x="159" y="-1769.3" font-family="Times,serif" font-size="14.00">softmax_label</text>
</g>
<!-- softmax -->
<g id="node19" class="node"><title>softmax</title>
<polygon fill="#fccde5" stroke="black" points="172,-1911 78,-1911 78,-1853 172,-1853 172,-1911"/>
<text text-anchor="middle" x="125" y="-1878.3" font-family="Times,serif" font-size="14.00">SoftmaxOutput</text>
</g>
<!-- softmax&#45;&gt;fc5 -->
<g id="edge17" class="edge"><title>softmax&#45;&gt;fc5</title>
<path fill="none" stroke="black" d="M98.4268,-1844.55C88.3623,-1830.74 77.0647,-1815.24 67.6275,-1802.3"/>
<polygon fill="black" stroke="black" points="104.506,-1852.89 94.9793,-1847.46 101.561,-1848.85 98.6157,-1844.81 98.6157,-1844.81 98.6157,-1844.81 101.561,-1848.85 102.252,-1842.16 104.506,-1852.89 104.506,-1852.89"/>
<text text-anchor="middle" x="94.5" y="-1823.8" font-family="Times,serif" font-size="14.00">2</text>
</g>
<!-- softmax&#45;&gt;softmax_label -->
<g id="edge18" class="edge"><title>softmax&#45;&gt;softmax_label</title>
<path fill="none" stroke="black" d="M137.007,-1843.21C141.37,-1829.48 146.215,-1814.24 150.244,-1801.56"/>
<polygon fill="black" stroke="black" points="133.933,-1852.89 132.673,-1841.99 135.447,-1848.12 136.962,-1843.36 136.962,-1843.36 136.962,-1843.36 135.447,-1848.12 141.25,-1844.72 133.933,-1852.89 133.933,-1852.89"/>
</g>
</g>
</svg>
